<svg xmlns="http://www.w3.org/2000/svg" fill="none" viewBox="0 0 40 40">
  <path fill="#000" d="M20.866 40c-.258-.066-.521-.119-.774-.202-1.578-.513-2.64-2.09-2.494-3.693.162-1.783 1.431-3.136 3.154-3.362 1.954-.257 3.782 1.079 4.076 2.978.313 2.017-.974 3.856-2.948 4.214-.094.017-.186.043-.279.065h-.736.001ZM6 18.878c.11-2.485 1.27-4.681 3.704-6.093C16.964 8.57197 24.241 4.38898 31.511.193975c.605-.349 1.026-.2289998 1.352.383 1.675 3.152005.572 7.013005-2.526 8.803005C25.99 11.893 21.638 14.399 17.288 16.909c-1.266.73-2.541 1.446-3.795 2.196-2.095 1.252-3.313 3.098-3.627 5.521-.057.443-.042.896-.046 1.344-.002.23-.08.4-.3.48-.225.081-.439.005-.566-.215-.726-1.258-1.467-2.508-2.164-3.783-.554-1.014-.775-2.124-.789-3.573L6 18.878Zm24.687-.176c-.096 2.4951-1.173 4.425-3.347 5.695-2.673 1.561-5.366 3.085-8.038 4.6471-2.091 1.2229-3.311 3.0539-3.647 5.4549-.063.45-.048.911-.051 1.3681-.002.3079-.093.482-.335.553-.246.073-.419-.0091-.579-.2841-.658-1.138-1.326-2.27-1.967-3.417-1.961-3.508-.758-7.934 2.718-9.952 4.393-2.55 8.797-5.08 13.197-7.617.496-.286.944-.161 1.219.337.552.999.837 2.066.831 3.216l-.001-.001Z"/>
</svg>
